{
date = "2013-05-07 17:01:52 +0000";
designer = "Shinji Pons";
designerURL = www.shinjipons.com;
familyName = "Modulo 32";
fontMaster = (
{
alignmentZones = (
"{128, 129}",
"{128, 129}",
"{128, 129}",
"{0, -2}",
"{0, -2}"
);
ascender = 128;
capHeight = 128;
customParameters = (
{
name = familyName;
value = "Modulo 32";
}
);
descender = 0;
guideLines = (
{
position = "{-25, 65}";
},
{
angle = 90;
position = "{88, 139}";
},
{
angle = 90;
position = "{56, 135}";
},
{
position = "{-18, 111}";
},
{
angle = 90;
position = "{25, 143}";
},
{
angle = 90;
position = "{119, 136}";
},
{
position = "{-22, 113}";
},
{
position = "{-20, 15}";
},
{
angle = 90;
position = "{121, -22}";
},
{
angle = 90;
position = "{23, -30}";
},
{
position = "{-14, 63}";
},
{
angle = 90;
position = "{71, 121}";
},
{
angle = 90;
position = "{73, 126}";
}
);
horizontalStems = (
32
);
id = "940E2F63-624A-4C3D-A909-721782B4CF41";
userData = {
GSOffsetHorizontal = "-15";
GSOffsetProportional = 1;
GSOffsetVertical = 10;
};
verticalStems = (
32
);
weightValue = 22;
widthValue = 128;
xHeight = 128;
}
);
glyphs = (
{
glyphname = A;
lastChange = "2013-06-03 00:52:06 +0200";
layers = (
{
guideLines = (
{
position = "{-9, 59}";
showMeasurement = 1;
},
{
angle = 90;
position = "{73, -10}";
showMeasurement = 1;
},
{
angle = 90;
position = "{23, 65}";
}
);
layerId = "940E2F63-624A-4C3D-A909-721782B4CF41";
name = Regular;
paths = (
{
closed = 1;
nodes = (
"121 113 LINE",
"121 15 LINE",
"23 15 LINE",
"23 65 LINE",
"73 65 LINE",
"73 63 LINE",
"25 63 LINE",
"25 17 LINE",
"119 17 LINE",
"119 111 LINE",
"23 111 LINE",
"23 113 LINE"
);
}
);
width = 144;
}
);
unicode = 0041;
},
{
glyphname = B;
lastChange = "2013-06-03 00:52:44 +0200";
layers = (
{
layerId = "940E2F63-624A-4C3D-A909-721782B4CF41";
name = Regular;
paths = (
{
closed = 1;
nodes = (
"121 15 LINE",
"71 15 LINE",
"71 17 LINE",
"119 17 LINE",
"119 63 LINE",
"71 63 LINE",
"71 65 LINE",
"119 65 LINE",
"119 111 LINE",
"25 111 LINE",
"25 15 LINE",
"23 15 LINE",
"23 113 LINE",
"121 113 LINE"
);
}
);
width = 144;
}
);
unicode = 0042;
},
{
glyphname = C;
lastChange = "2013-06-03 00:52:57 +0200";
layers = (
{
layerId = "940E2F63-624A-4C3D-A909-721782B4CF41";
name = Regular;
paths = (
{
closed = 1;
nodes = (
"23 15 LINE",
"23 113 LINE",
"121 113 LINE",
"121 111 LINE",
"25 111 LINE",
"25 17 LINE",
"121 17 LINE",
"121 15 LINE"
);
}
);
width = 144;
}
);
unicode = 0043;
},
{
glyphname = D;
lastChange = "2013-06-03 00:54:10 +0200";
layers = (
{
layerId = "940E2F63-624A-4C3D-A909-721782B4CF41";
name = Regular;
paths = (
{
closed = 1;
nodes = (
"23 15 LINE",
"23 65 LINE",
"25 65 LINE",
"25 17 LINE",
"119 17 LINE",
"119 111 LINE",
"23 111 LINE",
"23 113 LINE",
"121 113 LINE",
"121 15 LINE"
);
}
);
width = 144;
}
);
unicode = 0044;
},
{
glyphname = E;
lastChange = "2013-06-03 00:55:01 +0200";
layers = (
{
layerId = "940E2F63-624A-4C3D-A909-721782B4CF41";
name = Regular;
paths = (
{
closed = 1;
nodes = (
"25 17 LINE",
"121 17 LINE",
"121 15 LINE",
"23 15 LINE",
"23 113 LINE",
"25 113 LINE",
"25 65 LINE",
"119 65 LINE",
"119 111 LINE",
"71 111 LINE",
"71 113 LINE",
"121 113 LINE",
"121 63 LINE",
"25 63 LINE"
);
}
);
width = 144;
}
);
unicode = 0045;
},
{
glyphname = F;
lastChange = "2013-06-03 00:55:23 +0200";
layers = (
{
layerId = "940E2F63-624A-4C3D-A909-721782B4CF41";
name = Regular;
paths = (
{
closed = 1;
nodes = (
"23 113 LINE",
"121 113 LINE",
"121 111 LINE",
"25 111 LINE",
"25 65 LINE",
"121 65 LINE",
"121 63 LINE",
"25 63 LINE",
"25 15 LINE",
"23 15 LINE"
);
}
);
width = 144;
}
);
unicode = 0046;
},
{
glyphname = H;
lastChange = "2013-06-03 00:55:42 +0200";
layers = (
{
layerId = "940E2F63-624A-4C3D-A909-721782B4CF41";
name = Regular;
paths = (
{
closed = 1;
nodes = (
"121 15 LINE",
"119 15 LINE",
"119 63 LINE",
"25 63 LINE",
"25 15 LINE",
"23 15 LINE",
"23 113 LINE",
"25 113 LINE",
"25 65 LINE",
"119 65 LINE",
"119 113 LINE",
"121 113 LINE"
);
}
);
width = 144;
}
);
unicode = 0048;
},
{
glyphname = J;
lastChange = "2013-06-03 00:56:15 +0200";
layers = (
{
layerId = "940E2F63-624A-4C3D-A909-721782B4CF41";
name = Regular;
paths = (
{
closed = 1;
nodes = (
"121 15 LINE",
"23 15 LINE",
"23 17 LINE",
"119 17 LINE",
"119 111 LINE",
"71 111 LINE",
"71 113 LINE",
"121 113 LINE"
);
}
);
width = 144;
}
);
unicode = 004A;
},
{
glyphname = K;
lastChange = "2013-06-03 00:56:23 +0200";
layers = (
{
layerId = "940E2F63-624A-4C3D-A909-721782B4CF41";
name = Regular;
paths = (
{
closed = 1;
nodes = (
"121 111 LINE",
"73 111 LINE",
"73 65 LINE",
"121 65 LINE",
"121 15 LINE",
"119 15 LINE",
"119 63 LINE",
"25 63 LINE",
"25 15 LINE",
"23 15 LINE",
"23 113 LINE",
"25 113 LINE",
"25 65 LINE",
"71 65 LINE",
"71 113 LINE",
"121 113 LINE"
);
}
);
width = 144;
}
);
unicode = 004B;
},
{
glyphname = L;
lastChange = "2013-06-03 00:56:38 +0200";
layers = (
{
layerId = "940E2F63-624A-4C3D-A909-721782B4CF41";
name = Regular;
paths = (
{
closed = 1;
nodes = (
"23 113 LINE",
"25 113 LINE",
"25 17 LINE",
"121 17 LINE",
"121 15 LINE",
"23 15 LINE"
);
}
);
width = 144;
}
);
unicode = 004C;
},
{
glyphname = M;
lastChange = "2013-06-03 00:56:44 +0200";
layers = (
{
layerId = "940E2F63-624A-4C3D-A909-721782B4CF41";
name = Regular;
paths = (
{
closed = 1;
nodes = (
"121 15 LINE",
"119 15 LINE",
"119 111 LINE",
"73 111 LINE",
"73 15 LINE",
"71 15 LINE",
"71 111 LINE",
"25 111 LINE",
"25 15 LINE",
"23 15 LINE",
"23 113 LINE",
"121 113 LINE"
);
}
);
width = 144;
}
);
unicode = 004D;
},
{
glyphname = N;
lastChange = "2013-06-03 00:56:48 +0200";
layers = (
{
layerId = "940E2F63-624A-4C3D-A909-721782B4CF41";
name = Regular;
paths = (
{
closed = 1;
nodes = (
"121 15 LINE",
"71 15 LINE",
"71 111 LINE",
"25 111 LINE",
"25 15 LINE",
"23 15 LINE",
"23 113 LINE",
"73 113 LINE",
"73 17 LINE",
"119 17 LINE",
"119 113 LINE",
"121 113 LINE"
);
}
);
width = 144;
}
);
unicode = 004E;
},
{
glyphname = O;
lastChange = "2013-06-03 00:56:55 +0200";
layers = (
{
layerId = "940E2F63-624A-4C3D-A909-721782B4CF41";
name = Regular;
paths = (
{
closed = 1;
nodes = (
"121 15 LINE",
"23 15 LINE",
"23 113 LINE",
"121 113 LINE"
);
},
{
closed = 1;
nodes = (
"25 111 LINE",
"25 17 LINE",
"119 17 LINE",
"119 111 LINE"
);
}
);
width = 144;
}
);
unicode = 004F;
},
{
glyphname = P;
lastChange = "2013-06-03 00:56:58 +0200";
layers = (
{
layerId = "940E2F63-624A-4C3D-A909-721782B4CF41";
name = Regular;
paths = (
{
closed = 1;
nodes = (
"23 15 LINE",
"23 113 LINE",
"121 113 LINE",
"121 63 LINE",
"71 63 LINE",
"71 65 LINE",
"119 65 LINE",
"119 111 LINE",
"25 111 LINE",
"25 15 LINE"
);
}
);
width = 144;
}
);
unicode = 0050;
},
{
glyphname = Q;
lastChange = "2013-06-03 00:57:09 +0200";
layers = (
{
layerId = "940E2F63-624A-4C3D-A909-721782B4CF41";
name = Regular;
paths = (
{
closed = 1;
nodes = (
"121 15 LINE",
"23 15 LINE",
"23 113 LINE",
"121 113 LINE"
);
},
{
closed = 1;
nodes = (
"25 111 LINE",
"25 17 LINE",
"71 17 LINE",
"71 65 LINE",
"73 65 LINE",
"73 17 LINE",
"119 17 LINE",
"119 111 LINE"
);
}
);
width = 144;
}
);
unicode = 0051;
},
{
glyphname = R;
lastChange = "2013-06-03 00:57:17 +0200";
layers = (
{
layerId = "940E2F63-624A-4C3D-A909-721782B4CF41";
name = Regular;
paths = (
{
closed = 1;
nodes = (
"73 17 LINE",
"121 17 LINE",
"121 15 LINE",
"71 15 LINE",
"71 65 LINE",
"119 65 LINE",
"119 111 LINE",
"25 111 LINE",
"25 15 LINE",
"23 15 LINE",
"23 113 LINE",
"121 113 LINE",
"121 63 LINE",
"73 63 LINE"
);
}
);
width = 144;
}
);
unicode = 0052;
},
{
glyphname = T;
lastChange = "2013-06-03 00:57:23 +0200";
layers = (
{
layerId = "940E2F63-624A-4C3D-A909-721782B4CF41";
name = Regular;
paths = (
{
closed = 1;
nodes = (
"121 111 LINE",
"73 111 LINE",
"73 15 LINE",
"71 15 LINE",
"71 111 LINE",
"23 111 LINE",
"23 113 LINE",
"121 113 LINE"
);
}
);
width = 144;
}
);
unicode = 0054;
},
{
glyphname = V;
lastChange = "2013-06-03 00:57:30 +0200";
layers = (
{
layerId = "940E2F63-624A-4C3D-A909-721782B4CF41";
name = Regular;
paths = (
{
closed = 1;
nodes = (
"25 113 LINE",
"25 17 LINE",
"71 17 LINE",
"71 65 LINE",
"119 65 LINE",
"119 113 LINE",
"121 113 LINE",
"121 63 LINE",
"73 63 LINE",
"73 15 LINE",
"23 15 LINE",
"23 113 LINE"
);
}
);
width = 144;
}
);
unicode = 0056;
},
{
glyphname = X;
lastChange = "2013-06-03 00:57:36 +0200";
layers = (
{
layerId = "940E2F63-624A-4C3D-A909-721782B4CF41";
name = Regular;
paths = (
{
closed = 1;
nodes = (
"73 17 LINE",
"119 17 LINE",
"119 65 LINE",
"121 65 LINE",
"121 15 LINE",
"23 15 LINE",
"23 17 LINE",
"71 17 LINE",
"71 111 LINE",
"25 111 LINE",
"25 63 LINE",
"23 63 LINE",
"23 113 LINE",
"121 113 LINE",
"121 111 LINE",
"73 111 LINE"
);
}
);
width = 144;
}
);
unicode = 0058;
},
{
glyphname = Y;
lastChange = "2013-06-03 00:57:42 +0200";
layers = (
{
layerId = "940E2F63-624A-4C3D-A909-721782B4CF41";
name = Regular;
paths = (
{
closed = 1;
nodes = (
"121 15 LINE",
"23 15 LINE",
"23 17 LINE",
"119 17 LINE",
"119 63 LINE",
"23 63 LINE",
"23 113 LINE",
"25 113 LINE",
"25 65 LINE",
"119 65 LINE",
"119 113 LINE",
"121 113 LINE"
);
}
);
width = 144;
}
);
unicode = 0059;
},
{
glyphname = zero;
lastChange = "2013-06-03 00:57:53 +0200";
layers = (
{
components = (
{
name = O;
transform = "{1, 0, 0, 1, 0, 0}";
}
);
layerId = "940E2F63-624A-4C3D-A909-721782B4CF41";
name = Regular;
paths = (
{
closed = 1;
nodes = (
"73 65 LINE",
"73 63 LINE",
"71 63 LINE",
"71 65 LINE"
);
}
);
width = 144;
}
);
unicode = 0030;
},
{
glyphname = one;
lastChange = "2013-06-03 00:59:18 +0200";
layers = (
{
layerId = "940E2F63-624A-4C3D-A909-721782B4CF41";
name = Regular;
paths = (
{
closed = 1;
nodes = (
"121 15 LINE",
"23 15 LINE",
"23 17 LINE",
"71 17 LINE",
"71 111 LINE",
"23 111 LINE",
"23 113 LINE",
"73 113 LINE",
"73 17 LINE",
"121 17 LINE"
);
}
);
width = 144;
}
);
unicode = 0031;
},
{
glyphname = four;
lastChange = "2013-06-03 00:59:22 +0200";
layers = (
{
layerId = "940E2F63-624A-4C3D-A909-721782B4CF41";
name = Regular;
paths = (
{
closed = 1;
nodes = (
"121 15 LINE",
"119 15 LINE",
"119 63 LINE",
"23 63 LINE",
"23 113 LINE",
"25 113 LINE",
"25 65 LINE",
"119 65 LINE",
"119 113 LINE",
"121 113 LINE"
);
}
);
width = 144;
}
);
unicode = 0034;
},
{
glyphname = seven;
lastChange = "2013-06-03 00:59:27 +0200";
layers = (
{
layerId = "940E2F63-624A-4C3D-A909-721782B4CF41";
name = Regular;
paths = (
{
closed = 1;
nodes = (
"121 63 LINE",
"73 63 LINE",
"73 15 LINE",
"71 15 LINE",
"71 65 LINE",
"119 65 LINE",
"119 111 LINE",
"23 111 LINE",
"23 113 LINE",
"121 113 LINE"
);
}
);
width = 144;
}
);
unicode = 0037;
},
{
glyphname = eight;
lastChange = "2013-06-03 00:59:31 +0200";
layers = (
{
layerId = "940E2F63-624A-4C3D-A909-721782B4CF41";
name = Regular;
paths = (
{
closed = 1;
nodes = (
"121 15 LINE",
"23 15 LINE",
"23 113 LINE",
"121 113 LINE"
);
},
{
closed = 1;
nodes = (
"25 111 LINE",
"25 65 LINE",
"119 65 LINE",
"119 111 LINE"
);
},
{
closed = 1;
nodes = (
"25 63 LINE",
"25 17 LINE",
"119 17 LINE",
"119 63 LINE"
);
}
);
width = 144;
}
);
unicode = 0038;
},
{
glyphname = asterisk;
lastChange = "2013-06-03 00:59:41 +0200";
layers = (
{
components = (
{
name = plus;
transform = "{1, 0, 0, 1, 0, 0}";
}
);
layerId = "940E2F63-624A-4C3D-A909-721782B4CF41";
name = Regular;
paths = (
{
closed = 1;
nodes = (
"121 111 LINE",
"119 111 LINE",
"119 113 LINE",
"121 113 LINE"
);
},
{
closed = 1;
nodes = (
"25 17 LINE",
"25 15 LINE",
"23 15 LINE",
"23 17 LINE"
);
},
{
closed = 1;
nodes = (
"23 111 LINE",
"23 113 LINE",
"25 113 LINE",
"25 111 LINE"
);
},
{
closed = 1;
nodes = (
"121 17 LINE",
"121 15 LINE",
"119 15 LINE",
"119 17 LINE"
);
}
);
width = 144;
}
);
unicode = 002A;
},
{
glyphname = backslash;
lastChange = "2013-06-03 00:59:45 +0200";
layers = (
{
layerId = "940E2F63-624A-4C3D-A909-721782B4CF41";
name = Regular;
paths = (
{
closed = 1;
nodes = (
"25 113 LINE",
"25 15 LINE",
"23 15 LINE",
"23 113 LINE"
);
},
{
closed = 1;
nodes = (
"73 113 LINE",
"73 15 LINE",
"71 15 LINE",
"71 113 LINE"
);
},
{
closed = 1;
nodes = (
"121 113 LINE",
"121 15 LINE",
"119 15 LINE",
"119 113 LINE"
);
}
);
width = 144;
}
);
unicode = 005C;
},
{
glyphname = ellipsis;
lastChange = "2013-06-03 01:06:08 +0200";
layers = (
{
layerId = "940E2F63-624A-4C3D-A909-721782B4CF41";
name = Regular;
paths = (
{
closed = 1;
nodes = (
"25 17 LINE",
"23 17 LINE",
"23 15 LINE",
"25 15 LINE"
);
},
{
closed = 1;
nodes = (
"23 113 LINE",
"23 111 LINE",
"121 111 LINE",
"121 113 LINE"
);
},
{
closed = 1;
nodes = (
"23 65 LINE",
"23 63 LINE",
"121 63 LINE",
"121 65 LINE"
);
},
{
closed = 1;
nodes = (
"73 17 LINE",
"71 17 LINE",
"71 15 LINE",
"73 15 LINE"
);
},
{
closed = 1;
nodes = (
"121 17 LINE",
"119 17 LINE",
"119 15 LINE",
"121 15 LINE"
);
}
);
width = 144;
}
);
unicode = 2026;
},
{
glyphname = exclam;
lastChange = "2013-06-03 01:06:14 +0200";
layers = (
{
layerId = "940E2F63-624A-4C3D-A909-721782B4CF41";
name = Regular;
paths = (
{
closed = 1;
nodes = (
"121 113 LINE",
"119 113 LINE",
"119 63 LINE",
"121 63 LINE"
);
},
{
closed = 1;
nodes = (
"73 113 LINE",
"71 113 LINE",
"71 63 LINE",
"73 63 LINE"
);
},
{
closed = 1;
nodes = (
"25 113 LINE",
"23 113 LINE",
"23 63 LINE",
"25 63 LINE"
);
},
{
closed = 1;
nodes = (
"25 17 LINE",
"23 17 LINE",
"23 15 LINE",
"25 15 LINE"
);
},
{
closed = 1;
nodes = (
"121 17 LINE",
"119 17 LINE",
"119 15 LINE",
"121 15 LINE"
);
},
{
closed = 1;
nodes = (
"73 17 LINE",
"71 17 LINE",
"71 15 LINE",
"73 15 LINE"
);
}
);
width = 144;
}
);
unicode = 0021;
},
{
glyphname = numbersign;
lastChange = "2013-06-03 01:06:23 +0200";
layers = (
{
layerId = "940E2F63-624A-4C3D-A909-721782B4CF41";
name = Regular;
paths = (
{
closed = 1;
nodes = (
"23 113 LINE",
"23 15 LINE",
"121 15 LINE",
"121 113 LINE"
);
},
{
closed = 1;
nodes = (
"25 111 LINE",
"71 111 LINE",
"71 65 LINE",
"25 65 LINE"
);
},
{
closed = 1;
nodes = (
"119 65 LINE",
"73 65 LINE",
"73 111 LINE",
"119 111 LINE"
);
},
{
closed = 1;
nodes = (
"25 17 LINE",
"25 63 LINE",
"71 63 LINE",
"71 17 LINE"
);
},
{
closed = 1;
nodes = (
"119 17 LINE",
"73 17 LINE",
"73 63 LINE",
"119 63 LINE"
);
}
);
width = 144;
}
);
unicode = 0023;
},
{
glyphname = question;
lastChange = "2013-06-03 01:06:28 +0200";
layers = (
{
layerId = "940E2F63-624A-4C3D-A909-721782B4CF41";
name = Regular;
paths = (
{
closed = 1;
nodes = (
"23 113 LINE",
"23 111 LINE",
"119 111 LINE",
"119 65 LINE",
"71 65 LINE",
"71 63 LINE",
"121 63 LINE",
"121 113 LINE"
);
},
{
closed = 1;
nodes = (
"73 17 LINE",
"71 17 LINE",
"71 15 LINE",
"73 15 LINE"
);
}
);
width = 144;
}
);
unicode = 003F;
},
{
glyphname = braceleft;
lastChange = "2013-06-03 01:06:33 +0200";
layers = (
{
layerId = "940E2F63-624A-4C3D-A909-721782B4CF41";
name = Regular;
paths = (
{
closed = 1;
nodes = (
"121 111 LINE",
"121 113 LINE",
"71 113 LINE",
"71 65 LINE",
"23 65 LINE",
"23 63 LINE",
"71 63 LINE",
"71 15 LINE",
"121 15 LINE",
"121 17 LINE",
"73 17 LINE",
"73 111 LINE"
);
}
);
width = 144;
}
);
unicode = 007B;
},
{
glyphname = divide;
lastChange = "2013-06-03 01:06:46 +0200";
layers = (
{
components = (
{
name = minus;
transform = "{1, 0, 0, 1, 0, 0}";
}
);
layerId = "940E2F63-624A-4C3D-A909-721782B4CF41";
name = Regular;
paths = (
{
closed = 1;
nodes = (
"71 113 LINE",
"71 111 LINE",
"73 111 LINE",
"73 113 LINE"
);
},
{
closed = 1;
nodes = (
"71 17 LINE",
"71 15 LINE",
"73 15 LINE",
"73 17 LINE"
);
}
);
width = 144;
}
);
unicode = 00F7;
},
{
glyphname = minus;
lastChange = "2013-06-03 01:06:50 +0200";
layers = (
{
layerId = "940E2F63-624A-4C3D-A909-721782B4CF41";
name = Regular;
paths = (
{
closed = 1;
nodes = (
"23 65 LINE",
"23 63 LINE",
"121 63 LINE",
"121 65 LINE"
);
}
);
width = 144;
}
);
unicode = 2212;
},
{
glyphname = plus;
lastChange = "2013-06-03 01:06:54 +0200";
layers = (
{
layerId = "940E2F63-624A-4C3D-A909-721782B4CF41";
name = Regular;
paths = (
{
closed = 1;
nodes = (
"121 65 LINE",
"73 65 LINE",
"73 113 LINE",
"71 113 LINE",
"71 65 LINE",
"23 65 LINE",
"23 63 LINE",
"71 63 LINE",
"71 15 LINE",
"73 15 LINE",
"73 63 LINE",
"121 63 LINE"
);
}
);
width = 144;
}
);
unicode = 002B;
},
{
glyphname = ampersand;
lastChange = "2013-06-03 01:06:58 +0200";
layers = (
{
layerId = "940E2F63-624A-4C3D-A909-721782B4CF41";
name = Regular;
paths = (
{
closed = 1;
nodes = (
"71 113 LINE",
"71 65 LINE",
"23 65 LINE",
"23 15 LINE",
"121 15 LINE",
"121 17 LINE",
"25 17 LINE",
"25 63 LINE",
"121 63 LINE",
"121 113 LINE"
);
},
{
closed = 1;
nodes = (
"119 111 LINE",
"119 65 LINE",
"73 65 LINE",
"73 111 LINE"
);
}
);
width = 144;
}
);
unicode = 0026;
},
{
glyphname = degree;
lastChange = "2013-06-03 01:07:08 +0200";
layers = (
{
layerId = "940E2F63-624A-4C3D-A909-721782B4CF41";
name = Regular;
paths = (
{
closed = 1;
nodes = (
"73 113 LINE",
"23 113 LINE",
"23 63 LINE",
"73 63 LINE"
);
},
{
closed = 1;
nodes = (
"119 17 LINE",
"71 17 LINE",
"71 15 LINE",
"121 15 LINE",
"121 65 LINE",
"119 65 LINE"
);
},
{
closed = 1;
nodes = (
"71 111 LINE",
"71 65 LINE",
"25 65 LINE",
"25 111 LINE"
);
}
